<svg version="1.2" xmlns="http://www.w3.org/2000/svg" viewBox="0 0 609 296" width="609" height="296">
	<title>CynexAI (1)</title>
	<style>
		.s0 { fill: #010203 } 
		.s1 { fill: #fefefe } 
	</style>
	<g id="Layer 1">
		<path class="s0" d="m204.3 94.4c4.3-0.1 12.6-1.3 16.3 0.5 4 1.9 23.1 33.3 26.1 39.1 1.8 3.3 6.1 16.1 8 17.6l0.3-0.3-1.9-7.2c-1.1-4.1-2-8.1-2.5-12.3-0.6-5-2.1-32.1 0.1-35.5 0.7-1.1 1.8-1.5 3-1.7 3.4-0.6 15.3-1.2 18 0.9 0.9 0.6 0.9 1.6 1.1 2.7 0.7 5.2 0.3 10.9 0.3 16.1v28.8l-0.1 24.8c0 3.4 0.5 6.9 0.2 10.3-0.1 1.5-0.5 3-1.4 4.1-1 1.2-2.7 1.2-4.1 1.3-5.8 0.2-11.5 0.4-17.2-0.5-4.9-5.2-23.7-35.2-26.8-41.9-2.4-5.1-3.4-10.6-5.7-15.6-0.6 0.3-0.5 0.2-0.5 0.8 0.6 5.7 2.2 11.5 2.9 17.2 0.7 5.8 2.1 32.2 0.2 37-0.5 1.2-1.5 2.3-2.7 2.8-3.2 1.2-15.5 0.7-18.6-0.8-1.2-1.2-1.2-3.7-1.4-5.4-0.9-13.2-0.1-27.1-0.1-40.5 0-11.8-0.7-26.3 0.1-37.9 0-1.1 0.3-2.2 1.1-3.1 1.3-1.3 3.5-1.2 5.3-1.3z"/>
		<path class="s0" d="m290.4 94.4c7.1-0.1 53.4-1.2 56 1.2 1.1 0.9 1.2 3.5 1.2 4.8 0.2 3.3 0.9 12.5-1.5 15-1.8 1.9-32.7 1-37.2 1.1l0.1 10.9c6.3 0.1 26.3-1.4 30.8 1.4 0.8 1.1 1 2.5 1.1 3.9 0.2 3 0.9 13.3-1.1 15.3-2.7 2.7-26 1.5-30.8 1.5v10l0.1 1.2c2.1 2.3 29.7 0.5 35 1.1 1.2 0.2 2.2 0.2 3 1.2 2.2 2.9 1.7 12.2 1.2 15.7-0.2 1.5-0.5 3.2-1.8 4.2-7.1 2.1-23.1 0.7-31.1 0.7-8.2 0.1-16.6 0.6-24.8 0.1-1.7-0.1-3.3-0.3-4.8-1-1-1.3-1.2-3.4-1.3-5.1-1.1-10.5-0.3-26.5-0.3-37.6v-26.8c0-4.9-0.2-9.9 0.2-14.7 0.1-1.2 0.2-2 1-3 1.3-1 3.3-1 5-1.1z"/>
		<path class="s0" d="m399.2 118.1c6.6-5 8.5-18.7 15.5-22.6 3.2-1.8 20-1.9 23.9-0.7 1.1 0.3 1.5 0.6 2 1.6-1 3.7-23.9 39.9-26.6 41.9 2.8 1.6 23.3 34.1 26.2 39.2 0.8 1.5 1.6 2.7 1.1 4.4-1.7 1.9-3.9 1.7-6.2 1.8l-10.4 0.1c-9 0-11.8-1.2-15.7-9.3-2.3-4.8-5.7-12-9.6-15.8q-0.2-0.1-0.3-0.2c0 0.4 0 0.7-0.1 1.1-1.1 3.6-11.6 21.5-14.8 23.4q-0.6 0.2-1.2 0.3c-4.2 0.6-20.8 1.3-23.7-0.9-1.7-5.9 25.2-38.7 25.6-44q0-0.1 0.1-0.3c-0.1-2.4-19.5-30.9-22.7-36.3-1.2-1.9-2.4-4-1.9-6.2 1.1-1 2.3-1.1 3.7-1.2 6.3-0.1 14.8-1.2 20.9 0.6 1 0.5 1.8 1.3 2.6 2.1 2.2 2.7 11.8 18.4 11.6 21z"/>
		<path class="s0" d="m50.8 92.5c6.6-0.6 14.4 0.2 20.7 2.5 8.5 3 15.1 8.9 18.9 17.1 1 2.1 1.9 4.5 1.1 6.8-1 1-2.1 1.6-3.4 2.1-2.8 1.3-15.7 6.3-18 4.9-3.8-2.3-3-8.2-9.3-10.5-4.1-1.6-10.1-1.2-14.1 0.7-2.6 1.3-4.3 3.4-5.2 6.1-1.1 3.6-1.1 25.8-0.5 30.5 0.2 1.7 0.6 3.5 1.4 5 1.1 2.2 3.2 4.1 5.7 4.8 2.1 0.6 4.5 0.8 6.7 1 12.9 0.8 9.3-8.3 15.8-11.4 2.8-1.4 7.4 0.9 10 1.8 2.8 0.9 6.9 1.8 9.2 3.6 1 0.7 1.7 1.7 1.9 3.1 0.4 3.8-2.9 8.8-5.2 11.7-5.6 7.1-14.3 11.5-23.2 12.5-11.6 1.4-25.8 0.5-35.3-7.1-6.9-5.5-10.6-13.5-11.6-22.1-0.6-5.5-0.4-11.2-0.4-16.7 0-12-0.8-23.9 7.2-33.9 6.8-8.6 17.1-11.4 27.6-12.5z"/>
		<path class="s0" d="m448.9 193.7c1-0.8 2.2-1.6 2.9-2.7 2.7-4.5 4.8-9.7 7.2-14.4l15-30.1 18.6-37c3.5-6.9 6.9-14 10.4-20.9 0.6-1.2 1.2-3.5 1.3-3.7 0.6-2.9 2.9 5.4 4.6 9 0.3 0.8 1.3 2.7 1.7 3.4 8.3 14.9 15.4 30.7 23 45.9 5 9.9 11.9 21.7 15.8 31.8l0.4 0.7c1.3 1.8 7.9 14.2 8 16.3 0.1 0.4 0 0.7 0 1.1q0 0.2 0 0.3c-1.4-2.8-7.2-5.6-10-7.2-5.4-4.5-12.6-8.1-18.6-11.9-8.1-5.1-16.5-11.3-25.2-15.4-0.7 1-50.8 32.6-55.1 34.8z"/>
		<path class="s1" d="m503.7 89.3l0.6 0.1c0.1 0.1 0.2 0.3 0.3 0.5 0.4 1.2 0.2 58.5 0 64.5-0.1 1.1-0.2 2-0.6 3-1 1.9-43.3 28-48.8 30.4l-0.2-0.1c-0.1-0.1-0.3-0.3-0.3-0.5 0-0.2 35.7-70.8 38.5-76.2 3.2-6.4 8.5-15.1 10.5-21.7z"/>
		<path class="s0" d="m106.8 94.4c5.5-0.1 15.3-1.3 20.3 0.5 4.8 1.8 15.2 24.4 17.9 29.9 3-5.4 12.7-26.6 16.8-29.1 3-1.9 18.6-2 22.5-1.1 1.3 0.3 1.9 0.7 2.6 1.7-0.3 5.1-18.4 33.6-22.3 40.1-2.2 3.6-4.8 7.3-6.3 11.3-3.3 8.7-0.1 19.8-1 29.1-0.2 1.6-0.3 4.7-1.7 5.8-2.7 2-15.3 1.4-18.7 0.9-1.2-0.2-2.7-0.5-3.4-1.6-3.4-5.1 0.3-24.1-1.4-31.6-1.1-5.1-5.1-10.5-7.8-15-2.8-4.8-21.7-35-21.7-38.3 0-0.4 0.2-0.9 0.3-1.3 1.4-1.1 2.2-1.1 3.9-1.3z"/>
		<path class="s0" d="m571.6 94.4c4.6-0.1 15.5-1.4 19.3 1.2 0.4 0.3 0.5 1.1 0.6 1.6 1.4 8.1 0.4 23.5 0.5 32.3 0 16.2 0.7 32.7-0.2 48.9-0.1 1.3-0.1 2.8-0.9 4-1.3 1-2.7 1-4.3 1q-0.1 0-0.2 0.1c-3.9 0.2-15.6 1.2-18.3-1.4-1.5-6.1-1.5-80.8-0.1-86.4 1-0.9 2.2-1.1 3.6-1.3z"/>
	</g>
</svg>