<svg version="1.2" xmlns="http://www.w3.org/2000/svg" viewBox="0 0 1640 550" width="1640" height="550">
	<title>New Project</title>
	<style>
		.s0 { fill: #010203 } 
		.s1 { fill: #fefefe } 
	</style>
	<g id="Layer 1 copy">
		<path class="s0" d="m539.3 77.5c12.1-0.2 35.4-3.6 45.7 1.5 11.3 5.3 64.9 93.4 73.3 109.6 5 9.3 17.1 45.2 22.4 49.4l0.9-0.8-5.4-20.2c-3.1-11.5-5.6-22.8-7-34.5-1.7-14.1-5.9-90.1 0.3-99.6 2-3.1 5-4.2 8.4-4.8 9.5-1.7 42.9-3.4 50.5 2.5 2.5 1.7 2.5 4.5 3.1 7.6 1.9 14.6 0.8 30.6 0.8 45.2v80.8l-0.3 69.5c0 9.6 1.4 19.4 0.6 28.9-0.3 4.2-1.4 8.4-3.9 11.5-2.8 3.4-7.6 3.4-11.5 3.7-16.3 0.5-32.3 1.1-48.3-1.4-13.7-14.6-66.5-98.8-75.2-117.6-6.7-14.3-9.5-29.7-15.9-43.7-1.7 0.8-1.4 0.5-1.4 2.2 1.6 16 6.1 32.3 8.1 48.3 2 16.2 5.9 90.3 0.5 103.8-1.4 3.3-4.2 6.4-7.5 7.8-9 3.4-43.5 2-52.2-2.2-3.4-3.4-3.4-10.4-3.9-15.2-2.6-37-0.3-76-0.3-113.6 0-33.1-2-73.8 0.3-106.3 0-3.1 0.8-6.2 3.1-8.7 3.6-3.7 9.8-3.4 14.8-3.7z"/>
		<path class="s0" d="m780.9 77.5c19.9-0.2 149.8-3.3 157.1 3.4 3 2.5 3.3 9.8 3.3 13.5 0.6 9.2 2.5 35-4.2 42.1-5 5.3-91.7 2.8-104.3 3l0.2 30.6c17.7 0.3 73.8-3.9 86.4 3.9 2.3 3.1 2.8 7.1 3.1 11 0.6 8.4 2.5 37.3-3.1 42.9-7.5 7.6-72.9 4.2-86.4 4.2v28.1l0.3 3.3c5.9 6.5 83.3 1.4 98.2 3.1 3.4 0.6 6.2 0.6 8.4 3.4 6.2 8.1 4.8 34.2 3.4 44-0.6 4.2-1.4 9-5.1 11.8-19.9 5.9-64.8 2-87.2 2-23 0.3-46.6 1.7-69.6 0.3-4.7-0.3-9.2-0.9-13.4-2.8-2.9-3.7-3.4-9.6-3.7-14.4-3.1-29.4-0.8-74.3-0.8-105.4v-75.2c0-13.8-0.6-27.8 0.5-41.3 0.3-3.3 0.6-5.6 2.8-8.4 3.7-2.8 9.3-2.8 14.1-3.1z"/>
		<path class="s0" d="m1086.1 144c18.5-14 23.8-52.4 43.5-63.4 8.9-5 56.1-5.3 67-1.9 3.1 0.8 4.2 1.7 5.6 4.5-2.8 10.3-67 111.9-74.6 117.5 7.8 4.5 65.4 95.7 73.5 110 2.2 4.2 4.5 7.5 3.1 12.3-4.8 5.3-11 4.8-17.4 5.1l-29.2 0.2c-25.2 0-33.1-3.3-44-26-6.5-13.5-16-33.7-27-44.4q-0.5-0.3-0.8-0.5c0 1.1 0 1.9-0.3 3.1-3.1 10.1-32.5 60.3-41.5 65.6q-1.7 0.6-3.4 0.8c-11.8 1.7-58.3 3.7-66.5-2.5-4.7-16.5 70.7-108.6 71.9-123.4q0-0.3 0.2-0.9c-0.2-6.7-54.7-86.6-63.6-101.8-3.4-5.3-6.8-11.2-5.4-17.4 3.1-2.8 6.5-3.1 10.4-3.4 17.7-0.2 41.5-3.3 58.6 1.7 2.8 1.4 5.1 3.7 7.3 5.9 6.2 7.6 33.1 51.6 32.6 58.9z"/>
		<path class="s0" d="m108.7 72.2c18.5-1.7 40.4 0.6 58.1 7 23.8 8.4 42.3 25 53 48 2.8 5.9 5.3 12.6 3.1 19.1-2.8 2.8-5.9 4.5-9.5 5.9-7.9 3.6-44.1 17.6-50.5 13.7-10.7-6.4-8.5-23-26.1-29.4-11.5-4.5-28.4-3.4-39.6 1.9-7.3 3.7-12.1 9.6-14.6 17.1-3.1 10.1-3.1 72.4-1.4 85.6 0.6 4.8 1.7 9.8 3.9 14 3.1 6.2 9 11.5 16 13.5 5.9 1.7 12.7 2.2 18.8 2.8 36.2 2.2 26.1-23.3 44.4-32 7.8-3.9 20.7 2.5 28 5.1 7.9 2.5 19.4 5 25.8 10.1 2.8 1.9 4.8 4.7 5.3 8.7 1.2 10.6-8.1 24.6-14.5 32.8-15.7 19.9-40.2 32.2-65.1 35-32.6 4-72.4 1.4-99-19.9-19.4-15.4-29.8-37.8-32.6-62-1.7-15.4-1.1-31.4-1.1-46.8 0-33.7-2.3-67.1 20.2-95.1 19.1-24.1 48-32 77.4-35.1z"/>
		<path class="s0" d="m1225.5 356.1c2.8-2.2 6.2-4.5 8.1-7.6 7.6-12.6 13.5-27.2 20.2-40.4l42.1-84.4 52.2-103.8c9.8-19.3 19.3-39.3 29.2-58.6 1.6-3.4 3.3-9.8 3.6-10.4 1.7-8.1 8.1 15.1 12.9 25.2 0.9 2.3 3.7 7.6 4.8 9.6 23.3 41.8 43.2 86.1 64.5 128.7 14 27.8 33.4 60.9 44.3 89.3l1.1 1.9c3.7 5.1 22.2 39.9 22.5 45.7 0.3 1.2 0 2 0 3.1q0 0.6 0 0.9c-3.9-7.9-20.2-15.7-28.1-20.2-15.1-12.7-35.3-22.7-52.1-33.4-22.8-14.3-46.3-31.7-70.7-43.2-2 2.8-142.5 91.4-154.6 97.6z"/>
		<path class="s1" d="m1379.2 63.2l1.7 0.3c0.3 0.3 0.6 0.9 0.8 1.4 1.2 3.4 0.6 164.1 0 181-0.2 3.1-0.5 5.6-1.6 8.4-2.8 5.3-121.5 78.5-136.9 85.3l-0.6-0.3c-0.3-0.3-0.8-0.9-0.8-1.4 0-0.6 100.1-198.6 108-213.8 8.9-17.9 23.8-42.3 29.4-60.9z"/>
		<path class="s0" d="m265.8 77.5c15.4-0.2 42.9-3.6 57 1.5 13.4 5 42.6 68.4 50.2 83.8 8.4-15.1 35.6-74.6 47.1-81.6 8.4-5.3 52.2-5.6 63.1-3.1 3.7 0.9 5.3 2 7.3 4.8-0.8 14.3-51.6 94.2-62.5 112.5-6.2 10.1-13.5 20.4-17.7 31.7-9.3 24.4-0.3 55.5-2.8 81.6-0.6 4.5-0.9 13.2-4.8 16.3-7.6 5.6-42.9 3.9-52.5 2.5-3.3-0.6-7.5-1.4-9.5-4.5-9.5-14.3 0.9-67.6-3.9-88.6-3.1-14.3-14.3-29.5-21.9-42.1-7.9-13.5-60.9-98.2-60.9-107.5 0-1.1 0.6-2.5 0.9-3.6 3.9-3.1 6.1-3.1 10.9-3.7z"/>
		<path class="s0" d="m1569.7 77.5c12.9-0.2 43.5-3.9 54.1 3.4 1.2 0.9 1.4 3.1 1.7 4.5 4 22.7 1.1 65.9 1.4 90.6 0 45.5 2 91.7-0.5 137.2-0.3 3.6-0.3 7.8-2.6 11.2-3.6 2.8-7.5 2.8-12 2.8q-0.3 0-0.6 0.3c-10.9 0.6-43.7 3.4-51.3-3.9-4.2-17.1-4.2-226.7-0.3-242.4 2.8-2.5 6.2-3.1 10.1-3.7z"/>
		<path id="PATH TO YOUR FUTURE" class="s0" aria-label="PATH TO YOUR FUTURE"  d="m349.4 408h-10.2v22.4h10.2q5.6 0 8.7-2.9 3-2.9 3-8.3 0-5.4-3-8.3-3.1-2.9-8.7-2.9zm-18.3 53v-59.6h18.3q10 0 15.1 4.5 5.2 4.5 5.2 13.3 0 8.8-5.2 13.3-5.1 4.5-15.1 4.5h-10.2v24zm75-22l-11-29.7-10.9 29.7zm-38.3 22l22.8-59.6h9.1l22.7 59.6h-8.4l-5.4-15.3h-26.9l-5.4 15.3zm48.7-52.8v-6.8h50.5v6.8h-21.2v52.8h-8.1v-52.8zm58.2 52.8v-59.6h8.1v24.4h29.3v-24.4h8.1v59.6h-8.1v-28.4h-29.3v28.4zm79.3-52.8v-6.8h50.4v6.8h-21.2v52.8h-8.1v-52.8zm82.5-1.4q-8.8 0-14 6.6-5.1 6.5-5.1 17.8 0 11.3 5.1 17.9 5.2 6.5 14 6.5 8.8 0 13.9-6.5 5.1-6.6 5.1-17.9 0-11.3-5.1-17.8-5.1-6.6-13.9-6.6zm0-6.5q12.5 0 20 8.4 7.5 8.4 7.5 22.5 0 14.1-7.5 22.6-7.5 8.4-20 8.4-12.6 0-20.1-8.4-7.6-8.4-7.6-22.6 0-14.1 7.6-22.5 7.5-8.4 20.1-8.4zm79.1 32.3l-21.1-31.2h8.7l16.5 24.5 16.4-24.5h8.7l-21.1 31.2v28.4h-8.1zm56.8-25.8q-8.8 0-14 6.6-5.2 6.5-5.2 17.8 0 11.3 5.2 17.9 5.2 6.5 14 6.5 8.8 0 13.9-6.5 5.1-6.6 5.1-17.9 0-11.3-5.1-17.8-5.1-6.6-13.9-6.6zm0-6.5q12.5 0 20 8.4 7.5 8.4 7.5 22.5 0 14.1-7.5 22.6-7.5 8.4-20 8.4-12.6 0-20.2-8.4-7.5-8.4-7.5-22.6 0-14.1 7.5-22.5 7.6-8.4 20.2-8.4zm39.2 38.3v-37.2h8.2v36.2q0 9.6 3.4 13.8 3.5 4.2 11.3 4.2 7.7 0 11.2-4.2 3.5-4.2 3.5-13.8v-36.2h8.1v37.2q0 11.7-5.8 17.6-5.7 6-17 6-11.3 0-17.1-6-5.8-5.9-5.8-17.6zm89.1-5.6q2.6 0.9 5.1 3.8 2.4 2.9 4.9 7.9l8.2 16.3h-8.7l-7.6-15.3q-3-6-5.8-7.9-2.7-2-7.5-2h-8.8v25.2h-8.1v-59.6h18.3q10.2 0 15.2 4.2 5 4.3 5 12.9 0 5.7-2.6 9.4-2.6 3.7-7.6 5.1zm-10-25h-10.2v21.2h10.2q5.8 0 8.7-2.7 3-2.7 3-8 0-5.2-3-7.8-2.9-2.7-8.7-2.7zm64.6 53v-59.6h34.3v6.8h-26.2v17.5h23.6v6.8h-23.6v28.5zm46.1-22.4v-37.2h8.1v36.2q0 9.6 3.5 13.8 3.5 4.2 11.2 4.2 7.8 0 11.3-4.2 3.4-4.2 3.4-13.8v-36.2h8.2v37.2q0 11.7-5.8 17.6-5.8 6-17.1 6-11.3 0-17.1-6-5.7-5.9-5.7-17.6zm52.5-30.4v-6.8h50.5v6.8h-21.2v52.8h-8.1v-52.8zm57.3 30.4v-37.2h8.1v36.2q0 9.6 3.5 13.8 3.5 4.2 11.3 4.2 7.7 0 11.2-4.2 3.5-4.2 3.5-13.8v-36.2h8.1v37.2q0 11.7-5.8 17.6-5.8 6-17 6-11.3 0-17.1-6-5.8-5.9-5.8-17.6zm89.1-5.6q2.6 0.9 5 3.8 2.5 2.9 5 7.9l8.2 16.3h-8.7l-7.6-15.3q-3-6-5.8-7.9-2.7-2-7.5-2h-8.8v25.2h-8.1v-59.6h18.2q10.3 0 15.3 4.2 5 4.3 5 12.9 0 5.7-2.6 9.4-2.6 3.7-7.6 5.1zm-10.1-25h-10.1v21.2h10.1q5.9 0 8.8-2.7 3-2.7 3-8 0-5.2-3-7.8-2.9-2.7-8.8-2.7zm38.7 53v-59.6h37.7v6.8h-29.7v17.6h28.4v6.8h-28.4v21.6h30.4v6.8z"/>
	</g>
</svg>